<svg xmlns="http://www.w3.org/2000/svg" xmlns:xlink="http://www.w3.org/1999/xlink" viewBox="0 0 324 111.5">
  <defs>
    <style>
      .a {
        fill: #fff;
      }

      .b {
        mask: url(#a);
      }

      .c {
        fill: #24265b;
      }
    </style>
    <mask id="a" x="0" y="-1" width="324" height="73" maskUnits="userSpaceOnUse">
      <g>
        <rect class="a" y="-1" width="324" height="73"/>
        <path d="M22.18,20.11c-.59,2.11-.29,2.3-1.77,4.31-2-.34-2.5-.05-4-2,.24-1.66-.84-2.06-1.77-3.13-2.11,0-3.14,2.25-4.17,3.87C10,26.63,11.63,26.68,14,26.73c1.57,0,3.64-.4,5.06,1.56,1.32,1.28,3.48,2.95,2.21,6.28a9.18,9.18,0,0,1-1.33,5,11.83,11.83,0,0,1-3.68,3.92,8.7,8.7,0,0,1-7-1.32,20.75,20.75,0,0,1-3.63-3l-.29-2.21a2.72,2.72,0,0,1,1-1.47c.79-.78,2.8-2.16,4.32.25a4.35,4.35,0,0,0,3.63,1.86s0,.19-.1.34a8.91,8.91,0,0,0,1.87-3.23c.49-.74-.74-2.26-1.08-2.9a.78.78,0,0,0-.74-.29l-.49-.05a6,6,0,0,1-4.51-.64A8.82,8.82,0,0,1,5.94,28.2a7.62,7.62,0,0,1-.74-5.39,15.41,15.41,0,0,1,2.7-5.4,8.42,8.42,0,0,1,4.76-3.28,6.34,6.34,0,0,1,5.25.74A10.47,10.47,0,0,1,22.18,20.11ZM42.37,35.4c-.93.74-1.72,3.28-3.14,3.73a6.86,6.86,0,0,1-5.06,1.52c-1.91.14-3.68-.3-4.56-1.48a16.43,16.43,0,0,1-3.19-4.11,9.52,9.52,0,0,1-.64-7.7c-.24-.78.59-1.56,1.08-2.15a6.1,6.1,0,0,1,3-2.55c.73-.25,1.52-.39,2.4-.64,2.55-.29,4.56.93,6.77,1.91C43.25,26.58,42.61,31.24,42.37,35.4Zm-5-5c-1.08-1-1-3.33-4.27-3.33-.68.29-2.06-.1-2.06,1.08A15.19,15.19,0,0,0,30.64,31a6.42,6.42,0,0,0,2,3.77c.2.1.4.15.49.3,1.28.78,3.34-.2,4-1.28C37.8,33.1,37.51,31.24,37.41,30.4ZM63,29.23v9.21c0,2.06.78,3.09-1.23,4.7-2,.45-2.4.79-3.33-.19-1.67-1.72-4.67-5.74-6.53-7.21-.69-1.42-.69-1-.79-1.17v.49c0,1.86.79,4.26.84,6.08v.93c.05,1.07.69,1.76-.3,2.69-1.57,1.42-2.89,2.45-4.66.35-.14-2.6-.39-5.3-.78-7.94-.35-2.11-.74-4.22-.89-6.33a2.56,2.56,0,0,1,0-2.69l.3-.3c-.15-3.82,4.17-3.43,6.08-1a7.24,7.24,0,0,0,1.43,1.57c.93,1.72,4.22,4.95,5.2,6.62l-.49-3c.05-2.26-1-4.22-.49-6.32.29-1.47,1.42-1.91,2.7-2.4C64.52,24.18,62.51,27.51,63,29.23Zm24.7-14.12A3.53,3.53,0,0,1,86.77,18c-1,.59-3.53,1.38-3.78,3.09,1.18.88,3.29,2.4,3.53,3.77,1.52,1.82.69,4.37.69,6.47C86,32.75,85.84,34.71,84.46,36c-1.18,2.45-6.08,3.38-8.73,3.43a10.1,10.1,0,0,0-1,2.74,5.73,5.73,0,0,0,.54,2.9,25.23,25.23,0,0,1,6.52,2.1,9.27,9.27,0,0,1,1.67,1.42c2.85,3.09,2.26,7.75,2,11.52-1.47,2.5-3.77,5.29-7,5.78a10.39,10.39,0,0,1-2.16,0,8.15,8.15,0,0,1-2.16-.09c-3-.69-5-3.68-6.43-6-2.31-3.83-1.47-11.47,3-13.73a14.57,14.57,0,0,1-.39-3.92,25.13,25.13,0,0,1,1-3.62,10.25,10.25,0,0,1-4.71-7.5,5.86,5.86,0,0,1,0-1.62,8.45,8.45,0,0,1,.84-2.11c1.27-2.84,4.31-7.5,8-7.94.84-.09,3.88.64,4.52.4,0-1.72,1.81-4.81,2.7-5.69.59-.64,1.52-.93,3.33-.73C87.26,13.59,87.65,14.28,87.65,15.11ZM81.13,28.59A3.63,3.63,0,0,0,78,26.14a19.81,19.81,0,0,0-2.5-.59c-1.27,1.18-4,3.33-2.94,5.24.39.79,1.52,3,2.3,3.29A7.16,7.16,0,0,1,77,34a9.58,9.58,0,0,0,2.46-1l1.08-1C81.62,31,81.57,30.21,81.13,28.59ZM79.9,54.71c-1-1-3.24-4.51-4.86-4.46a5.09,5.09,0,0,0-2.11,1,21.14,21.14,0,0,0-1.08,4.07A7.46,7.46,0,0,0,73.91,59c.2.1,1.08.1,1.33.2,1.86.29,3.33.29,4.46-1.13C80.39,57.21,80,55.64,79.9,54.71Zm46.21-6.32a3.06,3.06,0,0,1-4.26,0c-2-3.68-1.13-4.12-2.41-7.7a50.36,50.36,0,0,1-7.21.1l-.44.69-.49,2.74.09.64c0,.15-.19.2-.24.34-.1.49-.2,1.13-.44,2.06-1.47,2-3.63,3.78-5.11.39l-.83-1.27a3.46,3.46,0,0,1,.69-1.86.54.54,0,0,1,.1-.3l0-.63.24-.59.1,0c-.2-.93,0-1.08.25-2.11-.35-.15-.89-.29-1.43-.49A3.38,3.38,0,0,1,103,39.13a2.74,2.74,0,0,1,.74-3.19,3.79,3.79,0,0,1,1.77-.88,6.23,6.23,0,0,1,2,0c.69-2.45,1.47-5,2.06-7.94.49-.93.44-2.94,1-4.51.83-2.21.44-2.7,1.42-4.85-.29-1.91,1.92-3.92,3.14-4.61,2.51.15,2.85,1.13,3.49,2.6.39,1.66.68,2,1.37,2.45-.34,1.13.49,2.2.59,3.87,1.52,2.94,1.18,6.37,2.55,9.36-.1,1.57.88,2.79.88,4.36.89,2.21.84,4.71,1.82,6.86C126.21,44.91,127.39,45.69,126.11,48.39Zm-7.9-13.14L118,33.88l-.1-.64c-.49-2.69-1.32-6.91-1.42-8a7.42,7.42,0,0,1-.64-2.94c-.54,2.1-1.81,7-2.5,10.14-.1.39-.25.1-.35.49s.2.59.15.93l-.24,1.47C113.46,35.35,117.72,35.3,118.21,35.25Zm43.33-6.12c.58,2.06-.89,4-.74,5.68-1,4.76-6.72,7.8-8.93,8.78-2.21,1.17-5.69,1.37-6.53-.74-1-.54-1.13-3.68.74-3.92v0c-.1-4.85-.44-10.88-.84-15.54-1.76-.68-3.38-1.22-1.27-4.31a10.4,10.4,0,0,1,7.7-.93c3.73.29,6.09,2.3,7.85,5.1C159.87,25.11,162,26.92,161.54,29.13Zm-5.06,1.32c-.19-2.84-.64-4.56-1.76-5.59-.15-.14-2-1.07-2.31-1.27-.44-.1-1.87-.29-2.26-.34-.14,2.25,1.38,4.65.79,7.4.44,1.52.34,6,.29,7.59.79-.34,2.41-1.27,2.65-1.42A6.82,6.82,0,0,0,156.48,30.45Zm25.83,11.22a3.66,3.66,0,0,1-2.89,3.63c-1.57-.24-2.46-1.13-2.46-2,0-.59.2-.93.2-2.3a.29.29,0,0,0,0-.2c-.73,1.42-3.33,2.6-5.54,2.6-2.65,0-4.12-2.35-4.91-2.75-1.28-.63-1.47-3-1.57-4.26.49-4.12,1.82-5.19,3.29-6.47l.44-.1c.25-.14,0-.34.29-.49a8.31,8.31,0,0,1,3.14-.54,14.2,14.2,0,0,1,4.32.69,25,25,0,0,0-.29-4.66c-.79-1.07-1.28-1.32-2.06-1.32-2.16,0-3.54,3.09-5.2,3.09a3,3,0,0,1-3.24-2.94,5,5,0,0,1,1.81-2.5,2.33,2.33,0,0,0,.59,0c.2,0,.15-.05.44-.35a7.48,7.48,0,0,1,5.94-2.3,6.3,6.3,0,0,1,5.06,2c2.35,2.4,2.15,4.85,2.3,7.79.05.74-.15,2-.1,2.7l.35,7.89C182.21,39.86,182.31,40.74,182.31,41.67Zm-5.54-6a3,3,0,0,0-3.19-2.75c-1.72,0-3.44,1-3.44,3,0,1.77,2.26,2.94,3.54,2.94A3.13,3.13,0,0,0,176.77,35.65ZM205,20.06c1.12,4.07-1.18,5-2.07,7A127.07,127.07,0,0,0,197.79,40c-.88,1.32-.19,2.6-1.62,3.63-.49,2-1.57,3.67-1.71,5.73-1.38,5-2.8,10.34-4.76,13.67-1,2.55-3.88,3.39-5.75-.78-1-1.72,3.44-9.12,4.57-14.12.68-2.89,2-6.12,2.94-9a2.83,2.83,0,0,1-.73-1.08,32.54,32.54,0,0,1-2.51-4.61c-.93-2.4-4.95-4.12-2-8.48,1.18-.78,2.94-1.86,4.22-.63.83,1.66,2.06,3.23,2.31,5.14l1.47,3.09a48.83,48.83,0,0,0,3.39-9.75C198.48,18.25,202,16.78,205,20.06Zm42.78.2a12.71,12.71,0,0,0-.69,3.92c-.1,1.37-1.13,7.25-1.23,8.62a14.35,14.35,0,0,1-.39,2.94c.25,3.19-.74,6.33-.59,9.51l-.19,1a11.8,11.8,0,0,1-.2,2.21c-.39,2.55-3.93,4.6-5.65,2.3-1.22-1.42-1-2.6-1.56-4.51a16.47,16.47,0,0,0-2.16-3.62c-1.13-2-.89-1.72-.94-1.57a5,5,0,0,1-.54,1.27c-.05.34-.93,1.18-1.17,1.62-.69,1.22-1.18,2.4-1.48,3a7.11,7.11,0,0,1-.63,3.38,6.51,6.51,0,0,1-1.82,2.5c-2.5.15-4.46-.59-4.37-3,.74-2.74-.58-5.34-.78-8-.3-3.43-1-6.17-.79-9.6l.15-.69-.64-4.66c-1.42-2.69-2.7-8.23,1.77-8.77,4.76,0,2.55,5.44,3.24,7.4C228.3,29,228.7,35.94,229,39.67c0-.3.69-1.52.89-2,.53-1.13,1-4,1.52-5.54.14-.54.39-.93.49-1.42a2.05,2.05,0,0,1,3.14-.84,11,11,0,0,1,1.37,2c1.08,2.06,1.72,4.56,2.5,6a4.56,4.56,0,0,0,.64.88c0-.83.3-2.59.25-3.62,1.62-2.6.29-9.76,1.72-12.7a19.65,19.65,0,0,1,.34-4.75c-.1-.69.69-.44,1.08-.93,1.08-1.32,2.35-1.86,4-1C248.91,17.07,248.33,18.44,247.79,20.26ZM266,35.4c-.93.74-1.72,3.28-3.14,3.73a6.84,6.84,0,0,1-5.05,1.52c-1.92.14-3.68-.3-4.57-1.48a16.91,16.91,0,0,1-3.19-4.11,9.48,9.48,0,0,1-.63-7.7c-.25-.78.58-1.56,1.08-2.15a6,6,0,0,1,3-2.55c.74-.25,1.52-.39,2.4-.64,2.55-.29,4.57.93,6.77,1.91C266.89,26.58,266.26,31.24,266,35.4Zm-4.95-5c-1.08-1-1-3.33-4.27-3.33-.69.29-2.06-.1-2.06,1.08a14.44,14.44,0,0,0-.45,2.84,6.43,6.43,0,0,0,2,3.77c.19.1.39.15.49.3,1.27.78,3.33-.2,4-1.28C261.45,33.1,261.15,31.24,261.06,30.4Zm22.79-5.24c.93,2.64,1.57,6.32-1,6.08-2.35.44-1.86-2.8-2.94-2.55-1.28-.15-3.68,1.61-4,2.69-.35.44,0,2-.15,2.8a2.37,2.37,0,0,1,.05,1.66c0,.88.19,2,.19,3.14s.1,4-1.47,4.85c-1.47.34-1.62.79-3.34.2a5.76,5.76,0,0,1-.68-4.9A23.69,23.69,0,0,1,270.3,35,22.81,22.81,0,0,0,270,30.5c0-.05.39-5.39.34-5.44-.83-3.87,5.15-5.59,5.6-1.62a2.88,2.88,0,0,1,.14,1.23c1-.88,1.62-2.31,3-2.16A7.1,7.1,0,0,1,283.85,25.16ZM295.94,42.7a2.33,2.33,0,0,1,1.57,2,3.57,3.57,0,0,1-2,3.53,12.09,12.09,0,0,1-3.48.54,3.85,3.85,0,0,1-2.85-.83,33.2,33.2,0,0,1-1.47-9.12c-.1-3.77-.59-7.59-.69-11.52a102.81,102.81,0,0,0-1.47-15.63c.15-1.42-.14-2.6.05-3.72A4.23,4.23,0,0,1,287,5.55a3.78,3.78,0,0,1,3.14.64,3.27,3.27,0,0,1,1.17,2.55,5.42,5.42,0,0,0-.05,1.22c.35.49-.09,0,.5,1.33,0,2.2-.54,4.95,0,6.91a3.36,3.36,0,0,1-.15,2c.44,1.47,0,2.94.88,4.31.05,2.75-.24,5.59.44,8.14a22.73,22.73,0,0,0,.49,7.3c-.63,1.13-.09,1.32.05,2.5v.1C293.83,43.88,295,42.61,295.94,42.7Zm23,2.94a16.94,16.94,0,0,1,0,3.19,6.44,6.44,0,0,1-1.22,3,4.25,4.25,0,0,1-1.48.29c-1.57,0-2.3-1.37-2.89-2.89a29.33,29.33,0,0,1,.15-5.54c-.1,0-1.33,1.08-1.38,1.08A4.6,4.6,0,0,1,307.54,46c-1.28.59-3.39-1.28-4.61-1.57-1.77-1.72-2.11-5.2-2.11-7.55,0-1.91.68-3.18,1.12-4.85,1.77-4.51,6.43-8.23,11-7.16-.05-.44-.05-4.85,0-5.34-.64-2.89.14-6-.59-8.72V9.72a11,11,0,0,1,.1-2.55,4,4,0,0,1,3-2.16,2.8,2.8,0,0,1,3.09,2.65,5.27,5.27,0,0,1-.44,2.6,21.94,21.94,0,0,0,.68,8.13c-.34,3.14-.19,9.56-.19,12.16C319.22,35.4,318.77,41,318.92,45.64Zm-5.79-13.23c-.24-.15.1-1.22-.19-1.57-.2-.19-1.38.25-1.62,0-1.48.25-2.7,1.42-3.88,2.89-.59,1.87-1,2.85-.74,4.27A2.37,2.37,0,0,0,309,40.3a6.29,6.29,0,0,0,2.36-.63c.63-.2,1.17-1.13,1.81-1.33C313.23,36.58,313.13,34.22,313.13,32.41Z"/>
      </g>
    </mask>
  </defs>
  <title>SongADayWorld__Logo--Standard</title>
  <path class="a" d="M22.18,20.11c-.59,2.11-.29,2.3-1.77,4.31-2-.34-2.5-.05-4-2,.24-1.66-.84-2.06-1.77-3.13-2.11,0-3.14,2.25-4.17,3.87C10,26.63,11.63,26.68,14,26.73c1.57,0,3.64-.4,5.06,1.56,1.32,1.28,3.48,2.95,2.21,6.28a9.18,9.18,0,0,1-1.33,5,11.83,11.83,0,0,1-3.68,3.92,8.7,8.7,0,0,1-7-1.32,20.75,20.75,0,0,1-3.63-3l-.29-2.21a2.72,2.72,0,0,1,1-1.47c.79-.78,2.8-2.16,4.32.25a4.35,4.35,0,0,0,3.63,1.86s0,.19-.1.34a8.91,8.91,0,0,0,1.87-3.23c.49-.74-.74-2.26-1.08-2.9a.78.78,0,0,0-.74-.29l-.49-.05a6,6,0,0,1-4.51-.64A8.82,8.82,0,0,1,5.94,28.2a7.62,7.62,0,0,1-.74-5.39,15.41,15.41,0,0,1,2.7-5.4,8.42,8.42,0,0,1,4.76-3.28,6.34,6.34,0,0,1,5.25.74A10.47,10.47,0,0,1,22.18,20.11ZM42.37,35.4c-.93.74-1.72,3.28-3.14,3.73a6.86,6.86,0,0,1-5.06,1.52c-1.91.14-3.68-.3-4.56-1.48a16.43,16.43,0,0,1-3.19-4.11,9.52,9.52,0,0,1-.64-7.7c-.24-.78.59-1.56,1.08-2.15a6.1,6.1,0,0,1,3-2.55c.73-.25,1.52-.39,2.4-.64,2.55-.29,4.56.93,6.77,1.91C43.25,26.58,42.61,31.24,42.37,35.4Zm-5-5c-1.08-1-1-3.33-4.27-3.33-.68.29-2.06-.1-2.06,1.08A15.19,15.19,0,0,0,30.64,31a6.42,6.42,0,0,0,2,3.77c.2.1.4.15.49.3,1.28.78,3.34-.2,4-1.28C37.8,33.1,37.51,31.24,37.41,30.4ZM63,29.23v9.21c0,2.06.78,3.09-1.23,4.7-2,.45-2.4.79-3.33-.19-1.67-1.72-4.67-5.74-6.53-7.21-.69-1.42-.69-1-.79-1.17v.49c0,1.86.79,4.26.84,6.08v.93c.05,1.07.69,1.76-.3,2.69-1.57,1.42-2.89,2.45-4.66.35-.14-2.6-.39-5.3-.78-7.94-.35-2.11-.74-4.22-.89-6.33a2.56,2.56,0,0,1,0-2.69l.3-.3c-.15-3.82,4.17-3.43,6.08-1a7.24,7.24,0,0,0,1.43,1.57c.93,1.72,4.22,4.95,5.2,6.62l-.49-3c.05-2.26-1-4.22-.49-6.32.29-1.47,1.42-1.91,2.7-2.4C64.52,24.18,62.51,27.51,63,29.23Zm24.7-14.12A3.53,3.53,0,0,1,86.77,18c-1,.59-3.53,1.38-3.78,3.09,1.18.88,3.29,2.4,3.53,3.77,1.52,1.82.69,4.37.69,6.47C86,32.75,85.84,34.71,84.46,36c-1.18,2.45-6.08,3.38-8.73,3.43a10.1,10.1,0,0,0-1,2.74,5.73,5.73,0,0,0,.54,2.9,25.23,25.23,0,0,1,6.52,2.1,9.27,9.27,0,0,1,1.67,1.42c2.85,3.09,2.26,7.75,2,11.52-1.47,2.5-3.77,5.29-7,5.78a10.39,10.39,0,0,1-2.16,0,8.15,8.15,0,0,1-2.16-.09c-3-.69-5-3.68-6.43-6-2.31-3.83-1.47-11.47,3-13.73a14.57,14.57,0,0,1-.39-3.92,25.13,25.13,0,0,1,1-3.62,10.25,10.25,0,0,1-4.71-7.5,5.86,5.86,0,0,1,0-1.62,8.45,8.45,0,0,1,.84-2.11c1.27-2.84,4.31-7.5,8-7.94.84-.09,3.88.64,4.52.4,0-1.72,1.81-4.81,2.7-5.69.59-.64,1.52-.93,3.33-.73C87.26,13.59,87.65,14.28,87.65,15.11ZM81.13,28.59A3.63,3.63,0,0,0,78,26.14a19.81,19.81,0,0,0-2.5-.59c-1.27,1.18-4,3.33-2.94,5.24.39.79,1.52,3,2.3,3.29A7.16,7.16,0,0,1,77,34a9.58,9.58,0,0,0,2.46-1l1.08-1C81.62,31,81.57,30.21,81.13,28.59ZM79.9,54.71c-1-1-3.24-4.51-4.86-4.46a5.09,5.09,0,0,0-2.11,1,21.14,21.14,0,0,0-1.08,4.07A7.46,7.46,0,0,0,73.91,59c.2.1,1.08.1,1.33.2,1.86.29,3.33.29,4.46-1.13C80.39,57.21,80,55.64,79.9,54.71Zm46.21-6.32a3.06,3.06,0,0,1-4.26,0c-2-3.68-1.13-4.12-2.41-7.7a50.36,50.36,0,0,1-7.21.1l-.44.69-.49,2.74.09.64c0,.15-.19.2-.24.34-.1.49-.2,1.13-.44,2.06-1.47,2-3.63,3.78-5.11.39l-.83-1.27a3.46,3.46,0,0,1,.69-1.86.54.54,0,0,1,.1-.3l0-.63.24-.59.1,0c-.2-.93,0-1.08.25-2.11-.35-.15-.89-.29-1.43-.49A3.38,3.38,0,0,1,103,39.13a2.74,2.74,0,0,1,.74-3.19,3.79,3.79,0,0,1,1.77-.88,6.23,6.23,0,0,1,2,0c.69-2.45,1.47-5,2.06-7.94.49-.93.44-2.94,1-4.51.83-2.21.44-2.7,1.42-4.85-.29-1.91,1.92-3.92,3.14-4.61,2.51.15,2.85,1.13,3.49,2.6.39,1.66.68,2,1.37,2.45-.34,1.13.49,2.2.59,3.87,1.52,2.94,1.18,6.37,2.55,9.36-.1,1.57.88,2.79.88,4.36.89,2.21.84,4.71,1.82,6.86C126.21,44.91,127.39,45.69,126.11,48.39Zm-7.9-13.14L118,33.88l-.1-.64c-.49-2.69-1.32-6.91-1.42-8a7.42,7.42,0,0,1-.64-2.94c-.54,2.1-1.81,7-2.5,10.14-.1.39-.25.1-.35.49s.2.59.15.93l-.24,1.47C113.46,35.35,117.72,35.3,118.21,35.25Zm43.33-6.12c.58,2.06-.89,4-.74,5.68-1,4.76-6.72,7.8-8.93,8.78-2.21,1.17-5.69,1.37-6.53-.74-1-.54-1.13-3.68.74-3.92v0c-.1-4.85-.44-10.88-.84-15.54-1.76-.68-3.38-1.22-1.27-4.31a10.4,10.4,0,0,1,7.7-.93c3.73.29,6.09,2.3,7.85,5.1C159.87,25.11,162,26.92,161.54,29.13Zm-5.06,1.32c-.19-2.84-.64-4.56-1.76-5.59-.15-.14-2-1.07-2.31-1.27-.44-.1-1.87-.29-2.26-.34-.14,2.25,1.38,4.65.79,7.4.44,1.52.34,6,.29,7.59.79-.34,2.41-1.27,2.65-1.42A6.82,6.82,0,0,0,156.48,30.45Zm25.83,11.22a3.66,3.66,0,0,1-2.89,3.63c-1.57-.24-2.46-1.13-2.46-2,0-.59.2-.93.2-2.3a.29.29,0,0,0,0-.2c-.73,1.42-3.33,2.6-5.54,2.6-2.65,0-4.12-2.35-4.91-2.75-1.28-.63-1.47-3-1.57-4.26.49-4.12,1.82-5.19,3.29-6.47l.44-.1c.25-.14,0-.34.29-.49a8.31,8.31,0,0,1,3.14-.54,14.2,14.2,0,0,1,4.32.69,25,25,0,0,0-.29-4.66c-.79-1.07-1.28-1.32-2.06-1.32-2.16,0-3.54,3.09-5.2,3.09a3,3,0,0,1-3.24-2.94,5,5,0,0,1,1.81-2.5,2.33,2.33,0,0,0,.59,0c.2,0,.15-.05.44-.35a7.48,7.48,0,0,1,5.94-2.3,6.3,6.3,0,0,1,5.06,2c2.35,2.4,2.15,4.85,2.3,7.79.05.74-.15,2-.1,2.7l.35,7.89C182.21,39.86,182.31,40.74,182.31,41.67Zm-5.54-6a3,3,0,0,0-3.19-2.75c-1.72,0-3.44,1-3.44,3,0,1.77,2.26,2.94,3.54,2.94A3.13,3.13,0,0,0,176.77,35.65ZM205,20.06c1.12,4.07-1.18,5-2.07,7A127.07,127.07,0,0,0,197.79,40c-.88,1.32-.19,2.6-1.62,3.63-.49,2-1.57,3.67-1.71,5.73-1.38,5-2.8,10.34-4.76,13.67-1,2.55-3.88,3.39-5.75-.78-1-1.72,3.44-9.12,4.57-14.12.68-2.89,2-6.12,2.94-9a2.83,2.83,0,0,1-.73-1.08,32.54,32.54,0,0,1-2.51-4.61c-.93-2.4-4.95-4.12-2-8.48,1.18-.78,2.94-1.86,4.22-.63.83,1.66,2.06,3.23,2.31,5.14l1.47,3.09a48.83,48.83,0,0,0,3.39-9.75C198.48,18.25,202,16.78,205,20.06Zm42.78.2a12.71,12.71,0,0,0-.69,3.92c-.1,1.37-1.13,7.25-1.23,8.62a14.35,14.35,0,0,1-.39,2.94c.25,3.19-.74,6.33-.59,9.51l-.19,1a11.8,11.8,0,0,1-.2,2.21c-.39,2.55-3.93,4.6-5.65,2.3-1.22-1.42-1-2.6-1.56-4.51a16.47,16.47,0,0,0-2.16-3.62c-1.13-2-.89-1.72-.94-1.57a5,5,0,0,1-.54,1.27c-.05.34-.93,1.18-1.17,1.62-.69,1.22-1.18,2.4-1.48,3a7.11,7.11,0,0,1-.63,3.38,6.51,6.51,0,0,1-1.82,2.5c-2.5.15-4.46-.59-4.37-3,.74-2.74-.58-5.34-.78-8-.3-3.43-1-6.17-.79-9.6l.15-.69-.64-4.66c-1.42-2.69-2.7-8.23,1.77-8.77,4.76,0,2.55,5.44,3.24,7.4C228.3,29,228.7,35.94,229,39.67c0-.3.69-1.52.89-2,.53-1.13,1-4,1.52-5.54.14-.54.39-.93.49-1.42a2.05,2.05,0,0,1,3.14-.84,11,11,0,0,1,1.37,2c1.08,2.06,1.72,4.56,2.5,6a4.56,4.56,0,0,0,.64.88c0-.83.3-2.59.25-3.62,1.62-2.6.29-9.76,1.72-12.7a19.65,19.65,0,0,1,.34-4.75c-.1-.69.69-.44,1.08-.93,1.08-1.32,2.35-1.86,4-1C248.91,17.07,248.33,18.44,247.79,20.26ZM266,35.4c-.93.74-1.72,3.28-3.14,3.73a6.84,6.84,0,0,1-5.05,1.52c-1.92.14-3.68-.3-4.57-1.48a16.91,16.91,0,0,1-3.19-4.11,9.48,9.48,0,0,1-.63-7.7c-.25-.78.58-1.56,1.08-2.15a6,6,0,0,1,3-2.55c.74-.25,1.52-.39,2.4-.64,2.55-.29,4.57.93,6.77,1.91C266.89,26.58,266.26,31.24,266,35.4Zm-4.95-5c-1.08-1-1-3.33-4.27-3.33-.69.29-2.06-.1-2.06,1.08a14.44,14.44,0,0,0-.45,2.84,6.43,6.43,0,0,0,2,3.77c.19.1.39.15.49.3,1.27.78,3.33-.2,4-1.28C261.45,33.1,261.15,31.24,261.06,30.4Zm22.79-5.24c.93,2.64,1.57,6.32-1,6.08-2.35.44-1.86-2.8-2.94-2.55-1.28-.15-3.68,1.61-4,2.69-.35.44,0,2-.15,2.8a2.37,2.37,0,0,1,.05,1.66c0,.88.19,2,.19,3.14s.1,4-1.47,4.85c-1.47.34-1.62.79-3.34.2a5.76,5.76,0,0,1-.68-4.9A23.69,23.69,0,0,1,270.3,35,22.81,22.81,0,0,0,270,30.5c0-.05.39-5.39.34-5.44-.83-3.87,5.15-5.59,5.6-1.62a2.88,2.88,0,0,1,.14,1.23c1-.88,1.62-2.31,3-2.16A7.1,7.1,0,0,1,283.85,25.16ZM295.94,42.7a2.33,2.33,0,0,1,1.57,2,3.57,3.57,0,0,1-2,3.53,12.09,12.09,0,0,1-3.48.54,3.85,3.85,0,0,1-2.85-.83,33.2,33.2,0,0,1-1.47-9.12c-.1-3.77-.59-7.59-.69-11.52a102.81,102.81,0,0,0-1.47-15.63c.15-1.42-.14-2.6.05-3.72A4.23,4.23,0,0,1,287,5.55a3.78,3.78,0,0,1,3.14.64,3.27,3.27,0,0,1,1.17,2.55,5.42,5.42,0,0,0-.05,1.22c.35.49-.09,0,.5,1.33,0,2.2-.54,4.95,0,6.91a3.36,3.36,0,0,1-.15,2c.44,1.47,0,2.94.88,4.31.05,2.75-.24,5.59.44,8.14a22.73,22.73,0,0,0,.49,7.3c-.63,1.13-.09,1.32.05,2.5v.1C293.83,43.88,295,42.61,295.94,42.7Zm23,2.94a16.94,16.94,0,0,1,0,3.19,6.44,6.44,0,0,1-1.22,3,4.25,4.25,0,0,1-1.48.29c-1.57,0-2.3-1.37-2.89-2.89a29.33,29.33,0,0,1,.15-5.54c-.1,0-1.33,1.08-1.38,1.08A4.6,4.6,0,0,1,307.54,46c-1.28.59-3.39-1.28-4.61-1.57-1.77-1.72-2.11-5.2-2.11-7.55,0-1.91.68-3.18,1.12-4.85,1.77-4.51,6.43-8.23,11-7.16-.05-.44-.05-4.85,0-5.34-.64-2.89.14-6-.59-8.72V9.72a11,11,0,0,1,.1-2.55,4,4,0,0,1,3-2.16,2.8,2.8,0,0,1,3.09,2.65,5.27,5.27,0,0,1-.44,2.6,21.94,21.94,0,0,0,.68,8.13c-.34,3.14-.19,9.56-.19,12.16C319.22,35.4,318.77,41,318.92,45.64Zm-5.79-13.23c-.24-.15.1-1.22-.19-1.57-.2-.19-1.38.25-1.62,0-1.48.25-2.7,1.42-3.88,2.89-.59,1.87-1,2.85-.74,4.27A2.37,2.37,0,0,0,309,40.3a6.29,6.29,0,0,0,2.36-.63c.63-.2,1.17-1.13,1.81-1.33C313.23,36.58,313.13,34.22,313.13,32.41Z"/>
  <g class="b">
    <path class="c" d="M77.68,71c-.41,0-.76,0-1.05,0s-.53,0-.77,0a10,10,0,0,1-2.94-.24c-5-1.17-7.78-5.54-9.45-8.15l-.07-.11A16.39,16.39,0,0,1,62.12,49.8,15.84,15.84,0,0,1,62.73,48l-.71.17a6.89,6.89,0,0,1-6.1-.8,7.19,7.19,0,0,1-.87,1l-.08.08c-1.17,1.06-3.35,3-6.48,2.82a7.62,7.62,0,0,1-5.37-3l-1.07-1.27L42,45.39c0-.66-.08-1.31-.13-2l-.12.06a11.66,11.66,0,0,1-7.63,2.16,9.92,9.92,0,0,1-8.06-3,14.06,14.06,0,0,1-1.32-1.36c-.14.26-.29.52-.44.78A16.93,16.93,0,0,1,19,47.67l-.58.37-.67.2a13.48,13.48,0,0,1-11-1.87A25.82,25.82,0,0,1,2,42.58L.9,41.4l-.66-5,.37-1.09a7.75,7.75,0,0,1,2-3.29,8,8,0,0,1-1-1.37l-.09-.15A12.68,12.68,0,0,1,.33,21.69a19.89,19.89,0,0,1,3.53-7.22l.07-.1a13.35,13.35,0,0,1,7.4-5.06,11.33,11.33,0,0,1,9.13,1.25,15.7,15.7,0,0,1,6.4,7.78l.06.17A9.74,9.74,0,0,1,28.06,18l.22-.08c.63-.21,1.24-.36,1.77-.49.28-.06.57-.13.87-.22l.38-.1.39-.05a15.19,15.19,0,0,1,8.42,1.87l1,.44.33.15.3.19a12.51,12.51,0,0,1,2.05,1.59,7.31,7.31,0,0,1,1.6-.82,6.75,6.75,0,0,1,.73-.22V18.08l1.31,2a9.58,9.58,0,0,1,6.22,1.84,9.44,9.44,0,0,1,4.61-3.24l1.34-.52,1.41.28a9.49,9.49,0,0,1,4.68,2.23c2-2.73,5.11-5.67,9.2-6.16a7.49,7.49,0,0,1,1.64,0A16.7,16.7,0,0,1,79,10.68c2.62-2.78,6.28-2.39,7.49-2.26l.22,0A6.64,6.64,0,0,1,92.65,15a8.51,8.51,0,0,1-2.21,6.38,8.49,8.49,0,0,1,.6,1.16c1.72,2.73,1.44,5.69,1.26,7.54,0,.47-.09.91-.09,1.21V33l-1.1,1.37a9.55,9.55,0,0,0-.51,1.05A12.83,12.83,0,0,1,88.51,39,10.39,10.39,0,0,1,84,42.72l.34.19A13.94,13.94,0,0,1,87,45.1l.14.15c4.09,4.43,3.68,10.17,3.38,14.36l-.13,2-.61,1c-3.49,5.92-7.62,7.72-10.49,8.18A9.39,9.39,0,0,1,77.68,71ZM62,39.45h0ZM77.5,31.11l.18,0Zm109.66,39c-1.66,0-5.33-.62-7.68-5.66-1.61-3.08-.15-6.51,1.84-11.2.56-1.33,1.18-2.77,1.65-4.09a10.2,10.2,0,0,1-2,.89l-1.13.36-1.18-.18a8.63,8.63,0,0,1-4.51-2.08,12.94,12.94,0,0,1-2.57.28A10.84,10.84,0,0,1,164,45l-.11-.11a6.77,6.77,0,0,1-2.12-2.07,26.13,26.13,0,0,1-7.74,5.28,11.67,11.67,0,0,1-9,.81,7.53,7.53,0,0,1-3.77-3,7.61,7.61,0,0,1-1.58-6.28,7.32,7.32,0,0,1,1.28-3c-.11-3.16-.3-6.76-.55-10.13a6.35,6.35,0,0,1-2.22-3.17c-1-3.27.95-6.14,1.59-7.08l.57-.83.85-.55a15.31,15.31,0,0,1,11.27-1.67A14.38,14.38,0,0,1,162.7,19a9.46,9.46,0,0,1,2.38-2.15l1.83-1.07a12.11,12.11,0,0,1,7.65-2.26A11.27,11.27,0,0,1,183.22,17a12.55,12.55,0,0,1,2,2.69c3.73-1.8,6.36-.83,7.92.32a9.53,9.53,0,0,1,6.23-6.45c3.24-.92,6.63.2,9.29,3.07l.83.89.32,1.17a10.22,10.22,0,0,1-1.91,9.83c-.15.19-.35.47-.41.57l-.26.52c-.74,1.4-3.91,9.31-4.51,11.21l-.1.86-.46.7v0a8,8,0,0,1-1.57,3.78c-.17.5-.35,1-.52,1.4a9.16,9.16,0,0,0-.64,2.06l0,.5-.3,1.07c-1.38,5-2.8,10.22-4.92,14a7.78,7.78,0,0,1-6.86,4.91Zm-22.76-25h0Zm38.36-4.67v.09A.31.31,0,0,0,202.76,40.49Zm-29.56-6.6a1.83,1.83,0,0,0-1.43,1.76,2.29,2.29,0,0,0,1.29,2.15l1.72-3.32a1.52,1.52,0,0,0-.3-.37A10,10,0,0,0,173.2,33.89Zm54.75,24a9,9,0,0,1-6.54-2.37,7.63,7.63,0,0,1-2.22-5.89l0-.56.14-.53a7.49,7.49,0,0,0-.34-2.81,25.38,25.38,0,0,1-.6-3.58c-.08-1-.21-1.91-.34-2.93a36.46,36.46,0,0,1-.45-7.32l.07-.59-.41-3c-.94-2.09-2.58-6.84-.46-10.89a8.13,8.13,0,0,1,6.47-4.3l.6,0a8,8,0,0,1,6,2.37c2.42,2.54,2.25,5.91,2.14,7.93,0,.27,0,.64,0,.87l.12.41.25-.06a6.77,6.77,0,0,1,3.54.2,16.11,16.11,0,0,1,.59-3.25,25.63,25.63,0,0,1,.38-4.45,5.37,5.37,0,0,1,3-4.41,7.8,7.8,0,0,1,9.35-1.46l.6.37a7.46,7.46,0,0,1,3.48,6l.43-.11c.28-.06.56-.13.87-.22l.37-.1.39-.05a15.14,15.14,0,0,1,8.42,1.87l.95.44.33.15.3.19a10.51,10.51,0,0,1,1,.67,8.36,8.36,0,0,1,10.06-3.66,7.08,7.08,0,0,1,1.55.86,6.6,6.6,0,0,1,1.73,0l.55.09c.4.08.81.18,1.22.29-.21-1.81-.46-3.61-.77-5.4l-.11-.68.07-.68a8.66,8.66,0,0,0,0-1.13,12.55,12.55,0,0,1,.11-2.93,9.22,9.22,0,0,1,2.86-5.18l1.11-1,1.5-.25a8.7,8.7,0,0,1,7.19,1.75,8.18,8.18,0,0,1,2.94,6.68v.2l.46,1,0,1.12c0,.73-.07,1.51-.13,2.3a15.41,15.41,0,0,0-.05,3.15,7.87,7.87,0,0,1,.16,3.49c.07.5.09.94.12,1.32,0,.13,0,.3,0,.43l.59.92,0,1.42c0,.77,0,1.54,0,2.31,0,1,0,2,0,2.89a16,16,0,0,1,10.4-9.45v-.25a24,24,0,0,1-.24-4.76,12.91,12.91,0,0,0-.16-3.08l-.17-.63V9.72c0-.19,0-.36,0-.53a12.26,12.26,0,0,1,.2-3l.16-.8.41-.7A8.86,8.86,0,0,1,315,0a7.71,7.71,0,0,1,8.51,7,9.73,9.73,0,0,1-.46,4.18,16,16,0,0,0,.5,5.62l.32,1-.11,1.06c-.25,2.22-.21,6.86-.18,9.63,0,.62,0,1.19,0,1.66a77.63,77.63,0,0,1,.33,10.34c0,1.74,0,3.39,0,4.89l0,.65a17,17,0,0,1-.08,3.46,11.4,11.4,0,0,1-2.13,5.2l-.9,1.23-1.43.52a9.48,9.48,0,0,1-3.19.59h-.15c-3.35-.1-5.82-2.1-7.35-5.94a7.43,7.43,0,0,1-1.18-.09,9.67,9.67,0,0,1-5.48-1.56l-.53-.3h-.08a8.09,8.09,0,0,1-4.11,3.7l-.22.08a17.3,17.3,0,0,1-5.06.79c-3,0-5.2-.87-6.66-2.6l-.71-.84-.3-1.06A38,38,0,0,1,282.75,39c0-.92-.08-1.84-.14-2.77a6.65,6.65,0,0,1-1.7-.17s0,.09,0,.14,0,.1,0,.15c.06.73.14,1.64.14,2.6v.18c0,1.85,0,6.75-4,9l-.62.35-.69.16a4.73,4.73,0,0,0-.51.15,7.91,7.91,0,0,1-5.59-.09l-1.67-.58-.94-1.5a11.18,11.18,0,0,1-1.4-3.31l-.25.13a11.65,11.65,0,0,1-7.63,2.16A10.16,10.16,0,0,1,250,43a15.68,15.68,0,0,0-.07,2l0,.61-.26,1.31v.18a9,9,0,0,1-.28,2.45,9.18,9.18,0,0,1-6.66,6.93A7.42,7.42,0,0,1,235,53.88c-.15-.18-.29-.37-.43-.55A11.56,11.56,0,0,1,232.47,56l-1.63,1.74-2,.12Zm11.7-10.55Zm-11.38-7.08.09.84a9.49,9.49,0,0,1,.61-.81Zm3.58-16.44c0,.05,0,.09,0,.14S231.86,23.85,231.85,23.8Zm65.06-1.53ZM239.1,13.46l-.07.09ZM313.56,8ZM107.68,54.54a6.83,6.83,0,0,1-6.46-4.45L99.88,48l-.1-1.3a7.22,7.22,0,0,1,.55-3.18,7,7,0,0,1-1.82-2.23,7.7,7.7,0,0,1,1.75-9,8.56,8.56,0,0,1,3.33-2c.38-1.36.74-2.77,1-4.26l.14-.71.18-.34c0-.2.08-.5.11-.73a16.91,16.91,0,0,1,.82-3.51,7.62,7.62,0,0,0,.39-1.46,15.53,15.53,0,0,1,.71-2.61c.32-3.93,3.71-6.88,5.7-8L114,8.07l1.46.09c5.5.32,7,3.8,7.72,5.47l.23.54.08.31,2.4,1.54L125,18.85a14.17,14.17,0,0,1,.44,1.83,22.68,22.68,0,0,1,1.42,5.4,13.93,13.93,0,0,0,.81,3.26l.52,1.15-.07,1.08c0,.14.12.37.18.55a13.18,13.18,0,0,1,.64,2.62,26.35,26.35,0,0,1,.82,3.4,12.32,12.32,0,0,0,.61,2.44l.27.59.11.63a5.56,5.56,0,0,0,.27.93,9.33,9.33,0,0,1-.39,7.8l-.53,1.12-1,.74a8,8,0,0,1-10.42-.12l-.78-.64-.47-.89a18.79,18.79,0,0,1-1.56-3.63v0c-.08.39-.18.85-.33,1.4l-.25.95-.58.79C112.57,53.11,110.21,54.54,107.68,54.54Zm17.09-34.92v0Z"/>
  </g>
  <path class="c" d="M16.88,89.3a17.23,17.23,0,0,1-.38,4.35,9,9,0,0,1-1.11,2,4.27,4.27,0,0,1-2.34,1.84,6.9,6.9,0,0,1-2.24.43,4.85,4.85,0,0,1-1.86,0A5.9,5.9,0,0,1,7,97.47c-.68-.47-.68-2.61.17-3a24.86,24.86,0,0,0-1-6.19C6.45,87,4.79,81.84,4.48,80.2c-.81.06-.91.46-1.9-.41-.5-.73-.13-1.37.24-2.31a9.12,9.12,0,0,1,3.42-1.87,10.76,10.76,0,0,1,3.66-.43,13,13,0,0,1,2.13.5l1.7,1.74A4.64,4.64,0,0,1,14.47,81a6.9,6.9,0,0,1-1.12,3.21,5.74,5.74,0,0,1,2,1.07A6,6,0,0,1,16.88,89.3Zm-3.39-.44a1.9,1.9,0,0,0-1-1.27,6.05,6.05,0,0,0-2.57-.1v0a1.78,1.78,0,0,0,0,.53,6,6,0,0,1,.17,1.88l.48,3a6.65,6.65,0,0,0,0,1.41,5,5,0,0,0,2.1-.74A7.09,7.09,0,0,0,13.49,88.86ZM11.56,80.8A6.14,6.14,0,0,0,10.27,79c-1.18-.43-1.18-.26-2.2,0,0,.44.92,4,1.08,4.56a6.31,6.31,0,0,1,1.8-.14C11.09,83.07,11.83,81.43,11.56,80.8Zm19.18-.07c.78,2.78-.81,3.42-1.42,4.79a85.94,85.94,0,0,0-3.56,8.8c-.6.9-.13,1.77-1.11,2.48-.34,1.34-1.09,2.51-1.19,3.91-.95,3.42-1.93,7.06-3.28,9.34-.68,1.74-2.68,2.31-4-.54-.71-1.17,2.37-6.22,3.15-9.63.48-2,1.39-4.19,2-6.16a1.85,1.85,0,0,1-.51-.74,21.21,21.21,0,0,1-1.73-3.15C18.52,88.19,15.74,87,17.77,84c.81-.53,2-1.27,2.91-.43a11.37,11.37,0,0,1,1.6,3.51l1,2.11a33,33,0,0,0,2.34-6.66C26.24,79.49,28.64,78.49,30.74,80.73ZM57,84.21a2.68,2.68,0,0,1-1.73,1.88c-1,.63-2.23.23-3.38.33a3.19,3.19,0,0,1,.13.74A38.05,38.05,0,0,1,53.3,93c.71,1.91.37,3.91.2,5.85-.71,1.21-.24,2.41-1.53,3.59a9,9,0,0,1-5,2.77c-1-.6-1.9.44-3.32-.43a2.69,2.69,0,0,1-2.3-1.57l0-1.21a2.45,2.45,0,0,1,1.25-1.57c1.22-.44,2,.37,3.12.73,3.35.31,4.54-2.84,4.13-5.65-.2-1.61-.68-3.18-.78-4.65a17.86,17.86,0,0,1-1-4c-1.89.14-4.77,1.51-5.89-.83-.41-2.28,1-2.41,2.3-2.58a57.7,57.7,0,0,0,8.67-.84,6.61,6.61,0,0,1,2.88.17C56.68,83,56.75,83.81,57,84.21Zm14,7c-.64.5-1.19,2.24-2.17,2.54a4.69,4.69,0,0,1-3.49,1,3.55,3.55,0,0,1-3.15-1A11.47,11.47,0,0,1,60,91a6.43,6.43,0,0,1-.44-5.25c-.17-.54.41-1.07.75-1.47a4.15,4.15,0,0,1,2.06-1.74c.51-.17,1-.27,1.66-.44,1.76-.2,3.15.64,4.68,1.31C71.6,85.18,71.16,88.36,71,91.21Zm-3.42-3.42c-.75-.7-.68-2.27-2.95-2.27-.47.2-1.42-.07-1.42.73a10.56,10.56,0,0,0-.31,1.94,4.36,4.36,0,0,0,1.36,2.58c.13.07.27.1.34.2a2.36,2.36,0,0,0,2.78-.87C67.84,89.63,67.64,88.36,67.57,87.79ZM85.19,87v6.29c0,1.41.55,2.11-.84,3.22-1.39.3-1.66.53-2.31-.14-1.15-1.17-3.21-3.91-4.5-4.92-.47-1-.47-.7-.54-.8V91c0,1.27.54,2.91.57,4.15v.64c0,.74.48,1.2-.2,1.84-1.08,1-2,1.67-3.22.23-.1-1.77-.27-3.61-.54-5.42-.24-1.44-.51-2.88-.61-4.32a1.74,1.74,0,0,1,0-1.84l.21-.2c-.11-2.61,2.87-2.34,4.19-.67a4.65,4.65,0,0,0,1,1.07C79,87.63,81.3,89.83,82,91l-.34-2.07c0-1.54-.71-2.88-.34-4.32.2-1,1-1.31,1.86-1.64C86.28,83.54,84.89,85.82,85.19,87Zm14.55,8.5a2.51,2.51,0,0,1-2,2.48c-1.08-.17-1.69-.77-1.69-1.34,0-.4.13-.64.13-1.57a.25.25,0,0,0,0-.14c-.51,1-2.3,1.78-3.83,1.78-1.83,0-2.84-1.61-3.39-1.88-.88-.43-1-2.07-1.08-2.91.34-2.81,1.25-3.55,2.27-4.42l.3-.06c.17-.11,0-.24.21-.34a5.8,5.8,0,0,1,2.17-.37,10,10,0,0,1,3,.47A16.84,16.84,0,0,0,95.57,84c-.54-.74-.88-.9-1.42-.9-1.49,0-2.44,2.11-3.59,2.11a2.07,2.07,0,0,1-2.23-2,3.41,3.41,0,0,1,1.25-1.71,1.78,1.78,0,0,0,.4,0c.14,0,.11,0,.31-.23a5.16,5.16,0,0,1,4.1-1.58A4.36,4.36,0,0,1,97.88,81c1.62,1.64,1.49,3.32,1.59,5.32,0,.51-.1,1.38-.07,1.84l.24,5.39C99.67,94.25,99.74,94.86,99.74,95.49Zm-3.83-4.12a2.07,2.07,0,0,0-2.2-1.87,2.15,2.15,0,0,0-2.37,2c0,1.21,1.56,2,2.44,2A2.15,2.15,0,0,0,95.91,91.37Zm18-4.11a2.43,2.43,0,0,1-.75.9,1.71,1.71,0,0,1-1.39.14s-1.49.33-2.71.5c.11,1,0,2.27.07,3.48,0,.33.14.47.17.77s-.1.7-.07,1a14.75,14.75,0,0,1,0,2.78,9.2,9.2,0,0,1,.1,1.64c.21.26.61.73,1.16.3s.91-1.58,1.38-1.84a.94.94,0,0,1,.92-.2c2.2.4.88,3.91.68,4.11a6.54,6.54,0,0,1-2.17,1.78,7.41,7.41,0,0,1-2.13.23,3,3,0,0,1-2.44-.8,2.49,2.49,0,0,1-.85-1.84c0-2.18-.2-4-.27-5.86,0-.4.24-.87.24-1.31s-.21-.7-.21-1.07V90.5a3.61,3.61,0,0,1,0-1.43,7,7,0,0,1-2.27.06c-.84-.43-1.69-.23-1.79-1.64a3,3,0,0,1,1-2.34,2.16,2.16,0,0,1,.91-.57c.71-.13,1.39.27,2.2.07,0-1.14,0-2.25-.06-3.35,0-.6-.17-1.14-.17-1.74,0-.1.13-.27.13-.37s-.17-.33-.17-.47a9.41,9.41,0,0,1,.38-1.67c.84-1.24,2-1.94,3.25-1.17a3.32,3.32,0,0,1,.61,1.4c.17,1.07-.48,2-.27,3.15,0,.2-.11,3.41-.11,3.95,1.19-.17,2.38-1,3.53-.3A4.49,4.49,0,0,1,113.88,87.26Zm14.88,11.08c.17.53-.58,1-1,1.2-3,.5-2.61-.3-3-2.54-.27-1.34,0-2.65-.65-3.92.07-1.14.14-3.38-.64-4.28a5.15,5.15,0,0,0-1.8,0c-.88.57-.71,2.75-.67,3.65,0,.27,0,.57,0,.87s.17.74.2,1.11c.11.77.11,1.54.21,2.31,0,.36.17.77.2,1.1a2.1,2.1,0,0,1-1.18,2.08c-3.66.6-2.48-1.88-3.15-3.59a5.62,5.62,0,0,0-.21-2.27l-.07-.7c0-.37-.13-.67-.16-1a20.44,20.44,0,0,1-.31-2.38c-.13-2.44-.27-7.33-.24-9.87,0-.87-.33-1.51-.27-2.38-.1-.3-.4-3.21-.4-3.58a2.53,2.53,0,0,1-.21-.74c.27-.77.85-2.07,1.76-2.3a1.93,1.93,0,0,1,.68,0,2.14,2.14,0,0,1,1.76,1.9,4.17,4.17,0,0,1,.17,1.71,8.9,8.9,0,0,1,.07,2.38c0,2.14-.3,6.46.24,8.3.47-.2,1-.41,1.45-.57a9.58,9.58,0,0,1,1.49-.3,3.69,3.69,0,0,1,3.12,1.67,16.17,16.17,0,0,1,1,1.47,7.84,7.84,0,0,1,.81,4.65,8,8,0,0,1,.17,3.12A17.11,17.11,0,0,1,128.76,98.34Zm13.6-2.85a2.52,2.52,0,0,1-2,2.48c-1.09-.17-1.7-.77-1.7-1.34,0-.4.14-.64.14-1.57a.25.25,0,0,0,0-.14c-.51,1-2.31,1.78-3.83,1.78-1.83,0-2.85-1.61-3.39-1.88-.88-.43-1-2.07-1.08-2.91.34-2.81,1.25-3.55,2.27-4.42l.3-.06c.17-.11,0-.24.2-.34a5.87,5.87,0,0,1,2.17-.37,9.93,9.93,0,0,1,3,.47,16,16,0,0,0-.2-3.18c-.54-.74-.88-.9-1.42-.9-1.49,0-2.44,2.11-3.59,2.11a2.08,2.08,0,0,1-2.24-2,3.47,3.47,0,0,1,1.25-1.71,1.87,1.87,0,0,0,.41,0c.14,0,.1,0,.31-.23A5.15,5.15,0,0,1,137,79.69,4.33,4.33,0,0,1,140.49,81c1.63,1.64,1.49,3.32,1.59,5.32,0,.51-.1,1.38-.06,1.84l.23,5.39C142.29,94.25,142.36,94.86,142.36,95.49Zm-3.83-4.12a2.07,2.07,0,0,0-2.2-1.87,2.15,2.15,0,0,0-2.37,2c0,1.21,1.55,2,2.43,2A2.15,2.15,0,0,0,138.53,91.37ZM156.9,87v6.29c0,1.41.54,2.11-.85,3.22-1.39.3-1.66.53-2.3-.14-1.15-1.17-3.22-3.91-4.5-4.92-.48-1-.48-.7-.55-.8V91c0,1.27.55,2.91.58,4.15v.64c0,.74.47,1.2-.2,1.84-1.09,1-2,1.67-3.22.23-.1-1.77-.27-3.61-.54-5.42-.24-1.44-.51-2.88-.61-4.32a1.7,1.7,0,0,1,0-1.84l.2-.2c-.1-2.61,2.88-2.34,4.2-.67a4.61,4.61,0,0,0,1,1.07c.65,1.18,2.91,3.38,3.59,4.52l-.34-2.07c0-1.54-.71-2.88-.34-4.32.21-1,1-1.31,1.87-1.64C158,83.54,156.59,85.82,156.9,87Zm33.83,6.23a5.07,5.07,0,0,1-.54,4.08l-1.42.5a2.22,2.22,0,0,1-1.7-2.71c-.1-1.34-.24-2.61-.3-3.92-.51-.83-.38-3.51-.88-4.28l-.17-1.24a13.11,13.11,0,0,1-1.26,1.88,14.2,14.2,0,0,1-2.4,3.41s-.2-.1-.2,0c.64,1.44-.61,2.07-1.56,2.64-1.8-.57-2.1-1.81-3-2.41-.57-.54-2.3-2.64-2.91-3.35a2.73,2.73,0,0,1-.2.64c-.48,2.28-.71,7-1.53,8.77a5.74,5.74,0,0,1-.54.27l-.24.16a1.51,1.51,0,0,1-1.93-.33c-1.11-.7-.4-3-.5-3.45.2-.8,1.28-9.84,1.15-10.27-.37-1.07-.71-1.84.1-2.88a2.1,2.1,0,0,1,3.45-.5,11.6,11.6,0,0,1,1.7,3c.57.84,3,3.68,3.66,4.42a52,52,0,0,0,4.06-6.19,3,3,0,0,1,1.79-2.35c1.36-.5,2.24.17,3,1,1.7,1.81.61,3.62,1.32,5.39C189.92,87.66,191,91,190.73,93.22Zm14.65,2.27a2.52,2.52,0,0,1-2,2.48c-1.09-.17-1.7-.77-1.7-1.34,0-.4.14-.64.14-1.57a.25.25,0,0,0,0-.14c-.51,1-2.31,1.78-3.83,1.78-1.83,0-2.85-1.61-3.39-1.88-.88-.43-1-2.07-1.08-2.91.34-2.81,1.25-3.55,2.27-4.42l.3-.06c.17-.11,0-.24.2-.34a5.87,5.87,0,0,1,2.17-.37,9.93,9.93,0,0,1,3,.47,16.83,16.83,0,0,0-.2-3.18c-.54-.74-.88-.9-1.42-.9-1.49,0-2.44,2.11-3.59,2.11a2.08,2.08,0,0,1-2.24-2,3.47,3.47,0,0,1,1.25-1.71,1.87,1.87,0,0,0,.41,0c.14,0,.1,0,.31-.23A5.15,5.15,0,0,1,200,79.69,4.33,4.33,0,0,1,203.51,81c1.63,1.64,1.49,3.32,1.59,5.32,0,.51-.1,1.38-.06,1.84l.23,5.39C205.31,94.25,205.38,94.86,205.38,95.49Zm-3.83-4.12a2.07,2.07,0,0,0-2.2-1.87,2.15,2.15,0,0,0-2.37,2c0,1.21,1.55,2,2.43,2A2.15,2.15,0,0,0,201.55,91.37Zm17.52,3.32c.21,1.24.27,2.17-.91,3-.85.2-1.25.87-2.14.2a18.06,18.06,0,0,1-1.79-3.51,50.17,50.17,0,0,0-2.61-4.32c0,1.14-.24,5.83-.13,7a4.14,4.14,0,0,1-.38,2c-.71.6-1.08,1-2.06.23-.27-.1-.41-.36-.65-.57,0-2.41-.06-3.74-.17-5.18s.21-3.65.17-5.06a1.47,1.47,0,0,1,.21-1.9,1.71,1.71,0,0,1,1.83-1.85,2.72,2.72,0,0,1,2.2,1.28,5.12,5.12,0,0,0,1,1A30.39,30.39,0,0,0,216.06,92s.13-3.38.17-3.45c0-1.64-.88-2.81-.65-4.52.28-1,.95-1.2,1.77-1.5a2,2,0,0,1,1.72,1.07c.44.93-.1,2.14.21,2.81C219.24,88.53,219.11,92.78,219.07,94.69ZM234,87v6.29c0,1.41.54,2.11-.85,3.22-1.39.3-1.66.53-2.3-.14-1.15-1.17-3.22-3.91-4.5-4.92-.48-1-.48-.7-.55-.8V91c0,1.27.55,2.91.58,4.15v.64c0,.74.47,1.2-.2,1.84-1.09,1-2,1.67-3.22.23-.1-1.77-.27-3.61-.54-5.42-.24-1.44-.51-2.88-.61-4.32a1.7,1.7,0,0,1,0-1.84l.2-.2c-.1-2.61,2.88-2.34,4.2-.67a4.61,4.61,0,0,0,1,1.07c.65,1.18,2.91,3.38,3.59,4.52l-.34-2.07c0-1.54-.71-2.88-.34-4.32.21-1,1-1.31,1.87-1.64C235.07,83.54,233.68,85.82,234,87Z"/>
</svg>
